<?xml version="1.0" encoding="UTF-8" standalone="no"?>
<!DOCTYPE svg PUBLIC "-//W3C//DTD SVG 1.1//EN" "http://www.w3.org/Graphics/SVG/1.1/DTD/svg11.dtd">
<svg width="100%" height="100%" viewBox="0 0 17 16" version="1.1" xmlns="http://www.w3.org/2000/svg" xmlns:xlink="http://www.w3.org/1999/xlink" xml:space="preserve" xmlns:serif="http://www.serif.com/" style="fill-rule:evenodd;clip-rule:evenodd;stroke-linejoin:round;stroke-miterlimit:2;">
    <path d="M12.438,10.806C11.594,11.714 10.522,12.797 9.222,14.058L8.447,14.805L7.672,14.058C6.372,12.797 5.301,11.714 4.457,10.806C3.615,9.9 2.954,9.096 2.469,8.393C1.983,7.69 1.658,7.063 1.477,6.511C1.294,5.95 1.202,5.377 1.202,4.792C1.202,3.6 1.569,2.635 2.288,1.861C3.005,1.09 3.885,0.708 4.962,0.708C5.554,0.708 6.116,0.842 6.654,1.113C7.193,1.385 7.659,1.767 8.055,2.268L8.447,2.765L8.839,2.268C9.235,1.767 9.702,1.385 10.24,1.113C10.778,0.842 11.34,0.708 11.932,0.708C13.009,0.708 13.889,1.09 14.606,1.861C15.325,2.635 15.692,3.6 15.692,4.792C15.692,5.377 15.601,5.95 15.417,6.511C15.236,7.063 14.911,7.69 14.425,8.393C13.94,9.096 13.279,9.9 12.438,10.806Z" style="fill:rgb(198,73,42);"/>
</svg>
