<svg width="17" height="16" viewBox="0 0 17 16" fill="none" xmlns="http://www.w3.org/2000/svg">
<path d="M12.4375 10.8055C11.5935 11.7136 10.5224 12.7972 9.22252 14.0573C9.22239 14.0575 9.22227 14.0576 9.22214 14.0577L8.44712 14.8053L7.67211 14.0577C7.67198 14.0576 7.67186 14.0575 7.67173 14.0573C6.37187 12.7972 5.30074 11.7136 4.45675 10.8055C3.61509 9.89989 2.95432 9.09615 2.46888 8.39304C1.98324 7.68965 1.65801 7.06299 1.47733 6.51113C1.29358 5.94991 1.20203 5.3774 1.20203 4.79171C1.20203 3.59966 1.56918 2.63481 2.28812 1.86126C3.00508 1.08986 3.8849 0.708374 4.96183 0.708374C5.55399 0.708374 6.11603 0.842412 6.65384 1.11327C7.19267 1.38465 7.65912 1.76749 8.05478 2.26832L8.44712 2.76496L8.83946 2.26832C9.23512 1.76749 9.70158 1.38465 10.2404 1.11327C10.7782 0.842412 11.3403 0.708374 11.9324 0.708374C13.0093 0.708374 13.8892 1.08986 14.6061 1.86126C15.3251 2.63481 15.6922 3.59966 15.6922 4.79171C15.6922 5.3774 15.6007 5.94991 15.4169 6.51113C15.2362 7.06299 14.911 7.68965 14.4254 8.39304C13.9399 9.09615 13.2792 9.89989 12.4375 10.8055ZM8.10013 13.61L8.44712 13.9445L8.79411 13.61C10.0369 12.4122 11.0632 11.3815 11.8713 10.519C12.6793 9.65666 13.3262 8.89777 13.8068 8.24417C14.2871 7.59099 14.6387 6.98595 14.8416 6.43253C15.0409 5.88879 15.1432 5.34107 15.1432 4.79171C15.1432 3.84564 14.846 3.02551 14.2349 2.36798C13.6217 1.70823 12.8425 1.37504 11.9324 1.37504C11.2168 1.37504 10.5546 1.59443 9.95763 2.01997C9.46412 2.37176 9.09007 2.81069 8.84575 3.33337H8.0485C7.80417 2.81069 7.43013 2.37176 6.93661 2.01997C6.33962 1.59443 5.67746 1.37504 4.96183 1.37504C4.0517 1.37504 3.2725 1.70823 2.65931 2.36798C2.0482 3.02551 1.75105 3.84564 1.75105 4.79171C1.75105 5.34107 1.85337 5.88879 2.05267 6.43253C2.25551 6.98595 2.60713 7.59099 3.08745 8.24417C3.56808 8.89777 4.21497 9.65666 5.02294 10.519C5.83108 11.3815 6.85736 12.4122 8.10013 13.61Z" stroke="#C6492A"/>
</svg>
